<svg width="16" height="26" viewBox="0 0 16 26" fill="none" xmlns="http://www.w3.org/2000/svg">
<path fill-rule="evenodd" clip-rule="evenodd" d="M15.6253 12.4008C15.7979 12.5745 15.8842 12.7742 15.8842 13C15.8842 13.2258 15.7979 13.4255 15.6253 13.5992L3.56151 25.7395C3.38892 25.9132 3.19045 26 2.96608 26C2.74172 26 2.54325 25.9132 2.37066 25.7395L1.07626 24.4369C0.903675 24.2632 0.817383 24.0635 0.817383 23.8377C0.817383 23.6119 0.903675 23.4122 1.07626 23.2385L11.2502 13L1.07626 2.76152C0.903675 2.58784 0.817383 2.38811 0.817383 2.16232C0.817383 1.93654 0.903675 1.73681 1.07626 1.56313L2.37066 0.260521C2.54325 0.0868395 2.74172 0 2.96608 0C3.19045 0 3.38892 0.0868395 3.56151 0.260521L15.6253 12.4008Z" fill="white"/>
</svg>
